<?xml version="1.0" encoding="UTF-8" standalone="no"?>
<!-- Created with Inkscape (http://www.inkscape.org/) -->

<svg
   xmlns:dc="http://purl.org/dc/elements/1.1/"
   xmlns:cc="http://creativecommons.org/ns#"
   xmlns:rdf="http://www.w3.org/1999/02/22-rdf-syntax-ns#"
   xmlns:svg="http://www.w3.org/2000/svg"
   xmlns="http://www.w3.org/2000/svg"
   xmlns:sodipodi="http://sodipodi.sourceforge.net/DTD/sodipodi-0.dtd"
   xmlns:inkscape="http://www.inkscape.org/namespaces/inkscape"
   version="1.1"
   width="744.09448"
   height="50"
   id="svg1901"
   inkscape:version="0.48.4 r9939"
   sodipodi:docname="credits.svg">
  <sodipodi:namedview
     pagecolor="#ffffff"
     bordercolor="#666666"
     borderopacity="1"
     objecttolerance="10"
     gridtolerance="10"
     guidetolerance="10"
     inkscape:pageopacity="0"
     inkscape:pageshadow="2"
     inkscape:window-width="1280"
     inkscape:window-height="962"
     id="namedview33"
     showgrid="false"
     inkscape:zoom="1.5204667"
     inkscape:cx="382.44225"
     inkscape:cy="37.98834"
     inkscape:window-x="-8"
     inkscape:window-y="-8"
     inkscape:window-maximized="1"
     inkscape:current-layer="svg1901" />
  <defs
     id="defs1903">
    <filter
       x="-0.15000001"
       y="-0.15000001"
       width="1.3"
       height="1.3"
       color-interpolation-filters="sRGB"
       id="filter3126">
      <feGaussianBlur
         result="result6"
         stdDeviation="0.5"
         id="feGaussianBlur3128" />
      <feComposite
         in2="result6"
         operator="in"
         in="result6"
         result="result91"
         id="feComposite3130" />
      <feBlend
         in2="result91"
         mode="multiply"
         in="result6"
         result="result2"
         id="feBlend3132" />
      <feGaussianBlur
         in="result2"
         result="result3"
         stdDeviation="7"
         id="feGaussianBlur3134" />
      <feComposite
         in2="result2"
         result="result92"
         id="feComposite3136" />
      <feComposite
         in2="result92"
         operator="in"
         in="result3"
         result="result5"
         id="feComposite3138" />
      <feGaussianBlur
         in="result5"
         stdDeviation="1"
         id="feGaussianBlur3140" />
      <feSpecularLighting
         result="result93"
         specularExponent="100"
         specularConstant="1.5"
         surfaceScale="2"
         id="feSpecularLighting3142">
        <fePointLight
           z="20000"
           y="-5000"
           x="-5000"
           id="fePointLight3144" />
      </feSpecularLighting>
      <feComposite
         in2="result5"
         operator="arithmetic"
         k1="1"
         k2="0"
         k3="0"
         k4="0"
         result="result93"
         id="feComposite3146" />
      <feComposite
         in2="result93"
         operator="arithmetic"
         k1="0"
         k2="0.1"
         k3="1"
         k4="0"
         in="result5"
         result="result94"
         id="feComposite3148" />
      <feBlend
         in2="result94"
         mode="multiply"
         id="feBlend3150" />
    </filter>
    <filter
       x="-0.25"
       y="-0.25"
       width="1.5"
       height="1.5"
       color-interpolation-filters="sRGB"
       id="filter3219">
      <feGaussianBlur
         result="result1"
         stdDeviation="1"
         id="feGaussianBlur3221" />
      <feComposite
         in2="result1"
         operator="in"
         in="result1"
         result="result4"
         id="feComposite3223" />
      <feGaussianBlur
         in="result4"
         result="result6"
         stdDeviation="7"
         id="feGaussianBlur3225" />
      <feComposite
         in2="result4"
         operator="over"
         in="result6"
         result="result8"
         id="feComposite3227" />
      <feComposite
         in2="result8"
         operator="in"
         in="result6"
         result="fbSourceGraphic"
         id="feComposite3229" />
      <feSpecularLighting
         in="fbSourceGraphic"
         result="result1"
         lighting-color="#ffffff"
         surfaceScale="2.5"
         specularConstant="2"
         specularExponent="45"
         id="feSpecularLighting3231">
        <fePointLight
           x="-5000"
           y="-10000"
           z="20000"
           id="fePointLight3233" />
      </feSpecularLighting>
      <feComposite
         in2="fbSourceGraphic"
         operator="in"
         in="result1"
         result="result2"
         id="feComposite3235" />
      <feComposite
         in2="result2"
         operator="arithmetic"
         k1="0"
         k2="1.2"
         k3="1.5"
         k4="0"
         in="fbSourceGraphic"
         result="result4"
         id="feComposite3237" />
      <feComposite
         in2="result4"
         operator="over"
         result="result9"
         id="feComposite3239" />
      <feBlend
         in2="result9"
         mode="screen"
         id="feBlend3241" />
    </filter>
  </defs>
  <metadata
     id="metadata1906">
    <rdf:RDF>
      <cc:Work
         rdf:about="">
        <dc:format>image/svg+xml</dc:format>
        <dc:type
           rdf:resource="http://purl.org/dc/dcmitype/StillImage" />
        <dc:title />
      </cc:Work>
    </rdf:RDF>
  </metadata>
  <g
     transform="translate(0,-1002.3622)"
     id="layer1">
    <g
       transform="matrix(0.9782806,0,0,0.9782806,-2.3746244,22.687367)"
       style="font-size:20.49040985px;font-style:normal;font-variant:normal;font-weight:normal;font-stretch:normal;line-height:125%;letter-spacing:0px;word-spacing:0px;fill:#00ffff;fill-opacity:1;stroke:none;filter:url(#filter3219);font-family:Racer;-inkscape-font-specification:Racer"
       id="text3215">
      <path
         d="m 25.395184,1022.6926 c 0.559852,10e-5 1.092518,0.092 1.598,0.2764 0.505448,0.1843 0.963076,0.4404 1.372885,0.7682 0.409773,0.3279 0.761514,0.7207 1.055223,1.1784 0.293672,0.4578 0.502007,0.953 0.625005,1.4858 l 2.540666,11.4539 -3.073436,0 c -0.122999,-0.5327 -0.249313,-1.0962 -0.378943,-1.6905 -0.129668,-0.5943 -0.259421,-1.1953 -0.38926,-1.8031 -0.129876,-0.6078 -0.263069,-1.2088 -0.399578,-1.8031 -0.136546,-0.5943 -0.266299,-1.1647 -0.38926,-1.7112 -0.28683,-1.2702 -0.566972,-2.5338 -0.840427,-3.7907 -0.08172,-0.396 -0.286517,-0.7238 -0.614375,-0.9833 -0.327891,-0.2595 -0.696724,-0.3892 -1.1065,-0.3892 l -3.257905,0 0,12.1711 -2.992145,0 0,-12.1711 -4.036426,0 c -0.491504,0 -0.908069,0.1707 -1.249697,0.5121 -0.341635,0.3414 -0.512451,0.7581 -0.512448,1.25 l 0,10.409 -2.99152,0 0,-10.409 c 0,-0.6557 0.126314,-1.2739 0.378943,-1.8544 0.252628,-0.5805 0.594155,-1.0859 1.024583,-1.5164 0.430425,-0.4304 0.932451,-0.7685 1.506078,-1.0142 0.573621,-0.2458 1.188308,-0.3686 1.844061,-0.3687 z"
         style=""
         id="path3011" />
      <path
         d="m 45.683617,1032.9579 -9.057102,0 c -0.19135,0.82 -0.379154,1.6534 -0.563411,2.5003 -0.184263,0.8469 -0.365188,1.6459 -0.542776,2.3971 l -3.053426,0 2.581937,-11.4539 c 0.122977,-0.5328 0.327873,-1.028 0.614687,-1.4858 0.28681,-0.4577 0.635111,-0.8505 1.044906,-1.1784 0.409788,-0.3278 0.870855,-0.5839 1.383203,-0.7682 0.512338,-0.1842 1.041773,-0.2763 1.588307,-0.2764 l 2.950248,0 c 0.560275,10e-5 1.093149,0.092 1.598625,0.2764 0.505454,0.1843 0.963082,0.4404 1.372885,0.7682 0.409779,0.3279 0.75808,0.7207 1.044906,1.1784 0.286799,0.4578 0.491694,0.953 0.614687,1.4858 l 2.581937,11.4539 -3.053426,0 c -0.177604,-0.7512 -0.358633,-1.5502 -0.543089,-2.3971 -0.184481,-0.8469 -0.372181,-1.6803 -0.563098,-2.5003 z m -8.380508,-2.9916 7.703914,0 c -0.09548,-0.4368 -0.180833,-0.8294 -0.256068,-1.1777 -0.07526,-0.3483 -0.146856,-0.6523 -0.214796,-0.9121 -0.06838,-0.3005 -0.129869,-0.5738 -0.184469,-0.8198 -0.09589,-0.396 -0.304332,-0.7238 -0.625318,-0.9833 -0.321006,-0.2595 -0.6864,-0.3892 -1.096182,-0.3892 l -2.950248,0 c -0.409798,0 -0.778631,0.1297 -1.1065,0.3892 -0.32788,0.2595 -0.53288,0.5873 -0.615,0.9833 -0.05462,0.246 -0.116105,0.5193 -0.184469,0.8198 -0.06837,0.2598 -0.136636,0.5638 -0.204791,0.9121 -0.06816,0.3483 -0.156855,0.7409 -0.266073,1.1777 z"
         style=""
         id="path3013" />
      <path
         d="m 53.980957,1022.7127 6.433894,-0.02 c 0.559857,10e-5 1.092523,0.092 1.597999,0.2764 0.505453,0.1843 0.963081,0.4404 1.372885,0.7682 0.409778,0.3279 0.75808,0.7207 1.044906,1.1784 0.286798,0.4578 0.491694,0.9597 0.614687,1.5058 -1.4e-5,0 0.03417,0.1435 0.102552,0.4305 0.06835,0.2871 0.146935,0.6389 0.235745,1.0556 0.08878,0.4167 0.187789,0.8708 0.297026,1.3625 0.109207,0.4918 0.211655,0.946 0.307344,1.3626 0.09566,0.4167 0.174239,0.765 0.235744,1.0449 0.06147,0.28 0.09222,0.4199 0.09224,0.4199 0.04084,0.1639 0.06814,0.3312 0.08192,0.5022 0.01374,0.1709 0.02062,0.3383 0.02064,0.5021 -1.6e-5,0.6557 -0.122995,1.2704 -0.368938,1.844 -0.245973,0.5737 -0.584061,1.0757 -1.014265,1.5061 -0.430233,0.4304 -0.935697,0.772 -1.516395,1.0246 -0.580724,0.2526 -1.198746,0.3789 -1.854067,0.3789 l -7.663894,-0.021 c -0.491502,0 -0.9558,-0.092 -1.392895,-0.2767 -0.437099,-0.1845 -0.819584,-0.4405 -1.147458,-0.7682 -0.327875,-0.3277 -0.584047,-0.7067 -0.768515,-1.1371 -0.184469,-0.4305 -0.276703,-0.8914 -0.276703,-1.3829 l 0,-7.9916 c 0,-0.4919 0.09223,-0.953 0.276703,-1.3832 0.184468,-0.4302 0.44064,-0.8092 0.768515,-1.1371 0.327874,-0.3279 0.70692,-0.5841 1.13714,-0.7685 0.430216,-0.1845 0.891284,-0.2767 1.383203,-0.2767 z m 0.02001,12.1511 7.683904,0 c 0.245947,0 0.474813,-0.044 0.686599,-0.1332 0.211762,-0.089 0.39623,-0.2152 0.553406,-0.3792 0.157151,-0.1641 0.283465,-0.3519 0.378943,-0.5634 0.09545,-0.2116 0.143184,-0.4404 0.143197,-0.6863 -1.3e-5,-0.068 -0.0033,-0.1299 -0.01,-0.1845 -0.0067,-0.055 -0.0169,-0.1161 -0.03064,-0.1845 l -1.270646,-5.676 c -0.09548,-0.396 -0.303707,-0.7238 -0.624692,-0.9833 -0.321007,-0.2595 -0.686401,-0.3892 -1.096182,-0.3892 l -6.413884,0 c -0.163836,0 -0.303803,0.058 -0.4199,0.1741 -0.116104,0.1161 -0.174154,0.2561 -0.174151,0.4199 l 0,7.9916 c -3e-6,0.1638 0.05805,0.3038 0.174151,0.4199 0.116097,0.1161 0.256064,0.1741 0.4199,0.1741 z"
         style=""
         id="path3015" />
      <path
         d="m 83.427166,1027.1186 -2.971509,0 0,-0.8404 c -1.3e-5,-0.1638 -0.05806,-0.3038 -0.174151,-0.4199 -0.116114,-0.1161 -0.256081,-0.1741 -0.419901,-0.1741 l -7.683904,0 c -0.491504,0 -0.908069,0.1707 -1.249697,0.5121 -0.341635,0.3414 -0.512451,0.7581 -0.512448,1.25 l 0,0.9017 5.225154,0 0,2.9915 -5.225154,0 0,1.7622 c -3e-6,0.4915 0.170813,0.9081 0.512448,1.2497 0.341628,0.3416 0.758193,0.5124 1.249697,0.5124 l 7.683904,0 c 0.16382,0 0.303787,-0.058 0.419901,-0.1741 0.116087,-0.1161 0.174138,-0.2561 0.174151,-0.4199 l 0,-0.8405 2.971509,0 0,0.8405 c -1.6e-5,0.4915 -0.09225,0.9524 -0.276703,1.3829 -0.184484,0.4304 -0.440656,0.8094 -0.768515,1.1371 -0.32789,0.3277 -0.706936,0.5837 -1.137141,0.7682 -0.430231,0.1845 -0.891299,0.2767 -1.383202,0.2767 l -7.683904,0.021 c -0.655754,0 -1.270441,-0.1263 -1.844062,-0.3789 -0.573627,-0.2526 -1.075652,-0.5942 -1.506077,-1.0246 -0.430428,-0.4304 -0.771956,-0.9324 -1.024583,-1.5061 -0.252629,-0.5736 -0.378943,-1.1883 -0.378943,-1.844 l 0,-5.6554 c 0,-0.6557 0.126314,-1.2739 0.378943,-1.8544 0.252627,-0.5805 0.594155,-1.0859 1.024583,-1.5164 0.430425,-0.4304 0.93245,-0.7685 1.506077,-1.0142 0.573621,-0.2458 1.188308,-0.3686 1.844062,-0.3687 l 7.683904,0.02 c 0.491903,0 0.952971,0.092 1.383202,0.2767 0.430205,0.1844 0.809251,0.4406 1.137141,0.7685 0.327859,0.3279 0.584031,0.7069 0.768515,1.1371 0.184453,0.4302 0.276687,0.8913 0.276703,1.3832 z"
         style=""
         id="path3017" />
      <path
         d="m 106.10618,1029.7412 c 0.43729,0.4369 0.77893,0.9423 1.0249,1.5161 0.24594,0.5738 0.36892,1.1886 0.36894,1.8444 -2e-5,0.6557 -0.123,1.2704 -0.36894,1.844 -0.24597,0.5737 -0.58406,1.0757 -1.01427,1.5061 -0.43023,0.4304 -0.93569,0.772 -1.51639,1.0246 -0.58073,0.2526 -1.19896,0.3789 -1.85469,0.3789 l -7.683907,0 c -0.491503,0 -0.955801,-0.092 -1.392895,-0.2767 -0.437099,-0.1844 -0.819584,-0.4406 -1.147458,-0.7685 -0.327876,-0.3278 -0.584047,-0.7103 -0.768515,-1.1474 -0.184469,-0.4371 -0.276703,-0.9014 -0.276703,-1.3929 l 0,-7.9916 c 0,-0.4919 0.09223,-0.9564 0.276703,-1.3935 0.184468,-0.4371 0.440639,-0.8196 0.768515,-1.1475 0.327874,-0.3278 0.710359,-0.5839 1.147458,-0.7682 0.437094,-0.1842 0.901392,-0.2763 1.392895,-0.2764 l 7.683907,0 c 0.60112,10e-5 1.1613,0.1127 1.68054,0.338 0.51921,0.2254 0.97683,0.5361 1.37288,0.9324 0.39602,0.3962 0.7067,0.8539 0.93204,1.3729 0.22531,0.519 0.33797,1.0791 0.33798,1.6802 -1e-5,0.519 -0.0854,1.0107 -0.25606,1.4751 -0.17073,0.4644 -0.40637,0.8811 -0.70693,1.25 z m -11.044357,-4.057 c -0.163836,0 -0.303803,0.058 -0.419901,0.1741 -0.116103,0.1161 -0.174154,0.2561 -0.174151,0.4199 l 0,2.0698 8.277959,0 c 0.36892,0 0.68314,-0.1298 0.94266,-0.3896 0.2595,-0.2597 0.38925,-0.5738 0.38926,-0.9423 -1e-5,-0.3689 -0.12976,-0.6832 -0.38926,-0.9427 -0.25952,-0.2595 -0.57374,-0.3892 -0.94266,-0.3892 z m 7.683907,9.1796 c 0.4919,0 0.90857,-0.1708 1.25001,-0.5124 0.34141,-0.3416 0.51212,-0.7582 0.51213,-1.2497 -1e-5,-0.246 -0.0444,-0.4748 -0.13319,-0.6866 -0.0888,-0.2118 -0.21512,-0.3962 -0.37894,-0.5531 -0.16385,-0.157 -0.35165,-0.2833 -0.56341,-0.379 -0.21179,-0.096 -0.44066,-0.1435 -0.6866,-0.1435 l -8.277959,0 0,2.9303 c -3e-6,0.1638 0.05805,0.3038 0.174151,0.4199 0.116098,0.1161 0.256065,0.1741 0.419901,0.1741 z"
         style=""
         id="path3019" />
      <path
         d="m 121.71662,1022.6926 2.97151,0 0,7.1512 c -2e-5,0.6557 -0.123,1.2704 -0.36894,1.844 -0.24597,0.5737 -0.58406,1.0756 -1.01426,1.5058 -0.43024,0.4302 -0.93226,0.7718 -1.50608,1.0246 -0.57385,0.2528 -1.18864,0.3792 -1.84438,0.3792 l -1.55704,0 0,3.2579 -2.99152,0 0,-3.2579 -1.96725,0 c -0.65575,0 -1.27044,-0.1264 -1.84406,-0.3792 -0.57362,-0.2528 -1.07565,-0.5944 -1.50607,-1.0246 -0.43043,-0.4302 -0.77196,-0.9321 -1.02459,-1.5058 -0.25263,-0.5736 -0.37894,-1.1883 -0.37894,-1.844 l 0,-7.1512 2.99152,0 0,7.1512 c 0,0.4915 0.17081,0.908 0.51245,1.2497 0.34163,0.3416 0.75819,0.5124 1.24969,0.5124 l 6.51581,0 c 0.24595,0 0.47482,-0.044 0.6866,-0.1332 0.21177,-0.089 0.39623,-0.2152 0.55341,-0.3792 0.15715,-0.1641 0.28346,-0.3519 0.37894,-0.5634 0.0954,-0.2116 0.14319,-0.4404 0.1432,-0.6863 z"
         style=""
         id="path3021" />
      <path
         d="m 148.10002,1032.1181 1.29128,5.7372 -3.01215,0 c -0.13675,-0.6011 -0.27338,-1.2056 -0.4099,-1.8134 -0.13654,-0.6078 -0.25952,-1.1542 -0.36894,-1.6392 -0.10944,-0.4851 -0.19823,-0.8812 -0.26638,-1.1885 -0.0682,-0.3072 -0.10225,-0.4608 -0.10224,-0.4608 -0.0959,-0.3965 -0.30433,-0.721 -0.62532,-0.9736 -0.32101,-0.2527 -0.67952,-0.379 -1.07554,-0.379 l -7.64264,0 0,6.4545 -2.95087,0 0,-15.1627 2.95087,0 0,5.7573 6.4339,0 c 0.40978,10e-5 0.77517,-0.1297 1.09618,-0.3892 0.32098,-0.2595 0.52234,-0.5873 0.60406,-0.9833 l 1.06554,-4.3848 3.03279,0 -1.20874,5.0607 0,-0.041 c -0.12299,0.5599 -0.3552,1.0926 -0.69661,1.5983 0.47815,0.3277 0.88106,0.7306 1.20874,1.2087 0.32766,0.4782 0.55298,1.011 0.67597,1.5984 z"
         style=""
         id="path3023" />
      <path
         d="m 162.34288,1032.9579 -9.0571,0 c -0.19135,0.82 -0.37916,1.6534 -0.56341,2.5003 -0.18427,0.8469 -0.36519,1.6459 -0.54278,2.3971 l -3.05343,0 2.58194,-11.4539 c 0.12298,-0.5328 0.32787,-1.028 0.61469,-1.4858 0.28681,-0.4577 0.63511,-0.8505 1.0449,-1.1784 0.40979,-0.3278 0.87086,-0.5839 1.38321,-0.7682 0.51233,-0.1842 1.04177,-0.2763 1.5883,-0.2764 l 2.95025,0 c 0.56028,10e-5 1.09315,0.092 1.59863,0.2764 0.50545,0.1843 0.96308,0.4404 1.37288,0.7682 0.40978,0.3279 0.75808,0.7207 1.04491,1.1784 0.2868,0.4578 0.49169,0.953 0.61468,1.4858 l 2.58194,11.4539 -3.05342,0 c -0.17761,-0.7512 -0.35864,-1.5502 -0.54309,-2.3971 -0.18448,-0.8469 -0.37218,-1.6803 -0.5631,-2.5003 z m -8.38051,-2.9916 7.70391,0 c -0.0955,-0.4368 -0.18083,-0.8294 -0.25606,-1.1777 -0.0753,-0.3483 -0.14686,-0.6523 -0.2148,-0.9121 -0.0684,-0.3005 -0.12987,-0.5738 -0.18447,-0.8198 -0.0959,-0.396 -0.30433,-0.7238 -0.62532,-0.9833 -0.321,-0.2595 -0.6864,-0.3892 -1.09618,-0.3892 l -2.95025,0 c -0.40979,0 -0.77863,0.1297 -1.1065,0.3892 -0.32788,0.2595 -0.53288,0.5873 -0.615,0.9833 -0.0546,0.246 -0.1161,0.5193 -0.18447,0.8198 -0.0684,0.2598 -0.13663,0.5638 -0.20479,0.9121 -0.0682,0.3483 -0.15685,0.7409 -0.26607,1.1777 z"
         style=""
         id="path3025" />
      <path
         d="m 170.06618,1033.1017 c 0,0.4915 0.17082,0.9081 0.51245,1.2497 0.34163,0.3416 0.75819,0.5124 1.2497,0.5124 l 7.6839,0 c 0.16382,0 0.30379,-0.058 0.4199,-0.1741 0.11609,-0.1161 0.17414,-0.2561 0.17415,-0.4199 l 0,-0.8405 2.97151,0 0,0.8405 c -1e-5,0.4915 -0.0923,0.9524 -0.2767,1.3829 -0.18448,0.4304 -0.44066,0.8094 -0.76852,1.1371 -0.32788,0.3277 -0.70693,0.5837 -1.13714,0.7682 -0.43023,0.1845 -0.89129,0.2767 -1.3832,0.2767 l -7.6839,0.021 c -0.65576,0 -1.27044,-0.1263 -1.84406,-0.3789 -0.57363,-0.2526 -1.07566,-0.5942 -1.50608,-1.0246 -0.43043,-0.4304 -0.77196,-0.9324 -1.02458,-1.5061 -0.25263,-0.5736 -0.37895,-1.1883 -0.37895,-1.844 l 0,-10.4091 2.99152,0 z"
         style=""
         id="path3027" />
      <path
         d="m 196.88043,1032.9579 -9.0571,0 c -0.19135,0.82 -0.37916,1.6534 -0.56341,2.5003 -0.18427,0.8469 -0.36519,1.6459 -0.54278,2.3971 l -3.05342,0 2.58193,-11.4539 c 0.12298,-0.5328 0.32788,-1.028 0.61469,-1.4858 0.28681,-0.4577 0.63511,-0.8505 1.04491,-1.1784 0.40978,-0.3278 0.87085,-0.5839 1.3832,-0.7682 0.51234,-0.1842 1.04177,-0.2763 1.58831,-0.2764 l 2.95024,0 c 0.56028,10e-5 1.09315,0.092 1.59863,0.2764 0.50545,0.1843 0.96308,0.4404 1.37288,0.7682 0.40978,0.3279 0.75808,0.7207 1.04491,1.1784 0.2868,0.4578 0.49169,0.953 0.61469,1.4858 l 2.58193,11.4539 -3.05342,0 c -0.17761,-0.7512 -0.35864,-1.5502 -0.54309,-2.3971 -0.18448,-0.8469 -0.37218,-1.6803 -0.5631,-2.5003 z m -8.38051,-2.9916 7.70392,0 c -0.0955,-0.4368 -0.18084,-0.8294 -0.25607,-1.1777 -0.0753,-0.3483 -0.14686,-0.6523 -0.2148,-0.9121 -0.0684,-0.3005 -0.12987,-0.5738 -0.18447,-0.8198 -0.0959,-0.396 -0.30433,-0.7238 -0.62531,-0.9833 -0.32101,-0.2595 -0.6864,-0.3892 -1.09619,-0.3892 l -2.95024,0 c -0.4098,0 -0.77864,0.1297 -1.1065,0.3892 -0.32788,0.2595 -0.53288,0.5873 -0.615,0.9833 -0.0546,0.246 -0.11611,0.5193 -0.18447,0.8198 -0.0684,0.2598 -0.13664,0.5638 -0.20479,0.9121 -0.0682,0.3483 -0.15686,0.7409 -0.26608,1.1777 z"
         style=""
         id="path3029" />
      <path
         d="m 216.7749,1032.1181 1.29128,5.7372 -3.01215,0 c -0.13675,-0.6011 -0.27338,-1.2056 -0.4099,-1.8134 -0.13654,-0.6078 -0.25952,-1.1542 -0.36893,-1.6392 -0.10945,-0.4851 -0.19824,-0.8812 -0.26639,-1.1885 -0.0682,-0.3072 -0.10225,-0.4608 -0.10224,-0.4608 -0.0959,-0.3965 -0.30433,-0.721 -0.62532,-0.9736 -0.321,-0.2527 -0.67952,-0.379 -1.07554,-0.379 l -7.64264,0 0,6.4545 -2.95087,0 0,-15.1627 2.95087,0 0,5.7573 6.4339,0 c 0.40978,10e-5 0.77517,-0.1297 1.09618,-0.3892 0.32099,-0.2595 0.52234,-0.5873 0.60406,-0.9833 l 1.06554,-4.3848 3.03279,0 -1.20874,5.0607 0,-0.041 c -0.12299,0.5599 -0.35519,1.0926 -0.6966,1.5983 0.47814,0.3277 0.88105,0.7306 1.20873,1.2087 0.32766,0.4782 0.55298,1.011 0.67597,1.5984 z"
         style=""
         id="path3031" />
      <path
         d="m 231.65247,1022.6926 2.97151,0 0,10.4091 c -10e-6,0.6557 -0.12299,1.2704 -0.36894,1.844 -0.24597,0.5737 -0.58406,1.0757 -1.01426,1.5061 -0.43023,0.4304 -0.93226,0.772 -1.50608,1.0246 -0.57384,0.2526 -1.18864,0.3789 -1.84437,0.3789 l -6.51581,0 c -0.65576,0 -1.27044,-0.1263 -1.84407,-0.3789 -0.57362,-0.2526 -1.07565,-0.5942 -1.50607,-1.0246 -0.43043,-0.4304 -0.77196,-0.9324 -1.02459,-1.5061 -0.25262,-0.5736 -0.37894,-1.1883 -0.37894,-1.844 l 0,-10.4091 2.99152,0 0,10.4091 c 0,0.4915 0.17081,0.9081 0.51245,1.2497 0.34163,0.3416 0.75819,0.5124 1.2497,0.5124 l 6.51581,0 c 0.24594,0 0.47481,-0.044 0.6866,-0.1332 0.21176,-0.089 0.39623,-0.2152 0.5534,-0.3792 0.15715,-0.1641 0.28347,-0.3519 0.37894,-0.5634 0.0955,-0.2116 0.14319,-0.4404 0.1432,-0.6863 z"
         style=""
         id="path3033" />
      <path
         d="m 248.89748,1037.8553 0,-6.4545 -9.91691,0 0,6.4545 -2.95087,0 0,-15.1627 2.95087,0 0,5.7573 9.91691,0 0,-5.7573 2.95088,0 0,15.1627 z"
         style=""
         id="path3035" />
      <path
         d="m 266.78219,1029.8844 0,2.3156 -6.72091,0 0,-2.3156 z"
         style=""
         id="path3037" />
      <path
         d="m 290.04963,1022.6926 c 0.55986,10e-5 1.09252,0.092 1.598,0.2764 0.50545,0.1843 0.96308,0.4404 1.37289,0.7682 0.40977,0.3279 0.76151,0.7207 1.05522,1.1784 0.29367,0.4578 0.50201,0.953 0.62501,1.4858 l 2.54066,11.4539 -3.07343,0 c -0.123,-0.5327 -0.24932,-1.0962 -0.37895,-1.6905 -0.12966,-0.5943 -0.25942,-1.1953 -0.38926,-1.8031 -0.12987,-0.6078 -0.26307,-1.2088 -0.39957,-1.8031 -0.13655,-0.5943 -0.2663,-1.1647 -0.38926,-1.7112 -0.28683,-1.2702 -0.56698,-2.5338 -0.84043,-3.7907 -0.0817,-0.396 -0.28652,-0.7238 -0.61438,-0.9833 -0.32789,-0.2595 -0.69672,-0.3892 -1.1065,-0.3892 l -3.2579,0 0,12.1711 -2.99215,0 0,-12.1711 -4.03642,0 c -0.49151,0 -0.90807,0.1707 -1.2497,0.5121 -0.34163,0.3414 -0.51245,0.7581 -0.51245,1.25 l 0,10.409 -2.99152,0 0,-10.409 c 0,-0.6557 0.12632,-1.2739 0.37895,-1.8544 0.25262,-0.5805 0.59415,-1.0859 1.02458,-1.5164 0.43042,-0.4304 0.93245,-0.7685 1.50608,-1.0142 0.57362,-0.2458 1.1883,-0.3686 1.84406,-0.3687 z"
         style=""
         id="path3039" />
      <path
         d="m 310.97275,1022.6926 2.97151,0 0,10.4091 c -10e-6,0.6557 -0.12299,1.2704 -0.36893,1.844 -0.24598,0.5737 -0.58407,1.0757 -1.01427,1.5061 -0.43023,0.4304 -0.93226,0.772 -1.50608,1.0246 -0.57384,0.2526 -1.18863,0.3789 -1.84437,0.3789 l -6.51581,0 c -0.65576,0 -1.27044,-0.1263 -1.84406,-0.3789 -0.57363,-0.2526 -1.07566,-0.5942 -1.50608,-1.0246 -0.43043,-0.4304 -0.77196,-0.9324 -1.02458,-1.5061 -0.25263,-0.5736 -0.37895,-1.1883 -0.37895,-1.844 l 0,-10.4091 2.99152,0 0,10.4091 c 0,0.4915 0.17082,0.9081 0.51245,1.2497 0.34163,0.3416 0.75819,0.5124 1.2497,0.5124 l 6.51581,0 c 0.24595,0 0.47481,-0.044 0.6866,-0.1332 0.21176,-0.089 0.39623,-0.2152 0.5534,-0.3792 0.15715,-0.1641 0.28347,-0.3519 0.37895,-0.5634 0.0954,-0.2116 0.14318,-0.4404 0.14319,-0.6863 z"
         style=""
         id="path3041" />
      <path
         d="m 318.79235,1027.5076 9.24095,2.7051 c 0.43729,0.1226 0.84031,0.3034 1.20905,0.5425 0.36871,0.2391 0.68627,0.5225 0.95267,0.8504 0.26637,0.3279 0.47814,0.6934 0.63532,1.0965 0.15715,0.4031 0.23573,0.83 0.23575,1.2807 -2e-5,0.5327 -0.10247,1.0348 -0.30735,1.506 -0.20491,0.4713 -0.48151,0.8811 -0.82979,1.2294 -0.34832,0.3483 -0.75811,0.6249 -1.22938,0.8298 -0.47129,0.2049 -0.97332,0.3073 -1.50608,0.3073 l -11.53586,0 0,-2.8889 11.53586,0 c 0.27305,0 0.50525,-0.096 0.69661,-0.287 0.19133,-0.1914 0.28701,-0.4236 0.28702,-0.6966 -10e-6,-0.2322 -0.0717,-0.4304 -0.21511,-0.5944 -0.14342,-0.164 -0.32455,-0.28 -0.5434,-0.348 l -9.24095,-2.7051 c -0.42355,-0.123 -0.82312,-0.304 -1.19873,-0.5431 -0.37561,-0.2391 -0.6966,-0.5226 -0.96299,-0.8504 -0.26638,-0.3279 -0.47816,-0.6933 -0.63532,-1.0962 -0.15716,-0.4029 -0.23575,-0.8297 -0.23575,-1.2804 0,-0.5327 0.10245,-1.0347 0.30735,-1.506 0.20489,-0.4713 0.4816,-0.8811 0.83011,-1.2294 0.34851,-0.3483 0.7584,-0.6249 1.22968,-0.8298 0.47128,-0.2049 0.9731,-0.3073 1.50546,-0.3074 l 11.51585,0 0,2.889 -11.51585,0 c -0.27306,0 -0.50516,0.096 -0.6963,0.2867 -0.19114,0.1912 -0.28671,0.4235 -0.2867,0.6969 -10e-6,0.2322 0.0717,0.4303 0.21511,0.5941 0.1434,0.1638 0.32432,0.2799 0.54277,0.3483 z"
         style=""
         id="path3043" />
      <path
         d="m 332.35861,1022.6926 2.95088,0 0,15.1627 -2.95088,0 z"
         style=""
         id="path3045" />
      <path
         d="m 336.60077,1027.4463 c 0,-0.6557 0.12631,-1.2739 0.37894,-1.8544 0.25263,-0.5805 0.59416,-1.0859 1.02459,-1.5164 0.43042,-0.4304 0.93245,-0.7685 1.50607,-1.0142 0.57363,-0.2458 1.18831,-0.3686 1.84407,-0.3687 l 7.6839,0.02 c 0.4919,0 0.95297,0.092 1.3832,0.2767 0.43021,0.1844 0.80925,0.4406 1.13714,0.7685 0.32786,0.3279 0.58403,0.7069 0.76852,1.1371 0.18445,0.4302 0.27669,0.8913 0.2767,1.3832 l 0,0.8404 -2.97151,0 0,-0.8404 c -10e-6,-0.1638 -0.0581,-0.3038 -0.17415,-0.4199 -0.11611,-0.1161 -0.25608,-0.1741 -0.4199,-0.1741 l -7.6839,0 c -0.49151,0 -0.90807,0.1707 -1.2497,0.5121 -0.34164,0.3414 -0.51245,0.7581 -0.51245,1.25 l 0,5.6554 c 0,0.4915 0.17081,0.9081 0.51245,1.2497 0.34163,0.3416 0.75819,0.5124 1.2497,0.5124 l 7.6839,0 c 0.16382,0 0.30379,-0.058 0.4199,-0.1741 0.11609,-0.1161 0.17414,-0.2561 0.17415,-0.4199 l 0,-0.8405 2.97151,0 0,0.8405 c -1e-5,0.4915 -0.0923,0.9524 -0.2767,1.3829 -0.18449,0.4304 -0.44066,0.8094 -0.76852,1.1371 -0.32789,0.3277 -0.70693,0.5837 -1.13714,0.7682 -0.43023,0.1845 -0.8913,0.2767 -1.3832,0.2767 l -7.6839,0.021 c -0.65576,0 -1.27044,-0.1263 -1.84407,-0.3789 -0.57362,-0.2526 -1.07565,-0.5942 -1.50607,-1.0246 -0.43043,-0.4304 -0.77196,-0.9324 -1.02459,-1.5061 -0.25263,-0.5736 -0.37894,-1.1883 -0.37894,-1.844 z"
         style=""
         id="path3047" />
      <path
         d="m 375.28295,1029.7412 c 0.43729,0.4369 0.77892,0.9423 1.0249,1.5161 0.24594,0.5738 0.36892,1.1886 0.36893,1.8444 -1e-5,0.6557 -0.12299,1.2704 -0.36893,1.844 -0.24598,0.5737 -0.58407,1.0757 -1.01427,1.5061 -0.43023,0.4304 -0.9357,0.772 -1.5164,1.0246 -0.58072,0.2526 -1.19895,0.3789 -1.85469,0.3789 l -7.6839,0 c -0.4915,0 -0.9558,-0.092 -1.3929,-0.2767 -0.4371,-0.1844 -0.81958,-0.4406 -1.14745,-0.7685 -0.32788,-0.3278 -0.58405,-0.7103 -0.76852,-1.1474 -0.18447,-0.4371 -0.2767,-0.9014 -0.2767,-1.3929 l 0,-7.9916 c 0,-0.4919 0.0922,-0.9564 0.2767,-1.3935 0.18447,-0.4371 0.44064,-0.8196 0.76852,-1.1475 0.32787,-0.3278 0.71035,-0.5839 1.14745,-0.7682 0.4371,-0.1842 0.9014,-0.2763 1.3929,-0.2764 l 7.6839,0 c 0.60113,10e-5 1.16131,0.1127 1.68054,0.338 0.51921,0.2254 0.97684,0.5361 1.37289,0.9324 0.39602,0.3962 0.7067,0.8539 0.93203,1.3729 0.22531,0.519 0.33797,1.0791 0.33799,1.6802 -2e-5,0.519 -0.0854,1.0107 -0.25607,1.4751 -0.17073,0.4644 -0.40637,0.8811 -0.70692,1.25 z m -11.04436,-4.057 c -0.16384,0 -0.3038,0.058 -0.4199,0.1741 -0.11611,0.1161 -0.17416,0.2561 -0.17415,0.4199 l 0,2.0698 8.27795,0 c 0.36893,0 0.68315,-0.1298 0.94267,-0.3896 0.25949,-0.2597 0.38925,-0.5738 0.38926,-0.9423 -10e-6,-0.3689 -0.12977,-0.6832 -0.38926,-0.9427 -0.25952,-0.2595 -0.57374,-0.3892 -0.94267,-0.3892 z m 7.6839,9.1796 c 0.49191,0 0.90858,-0.1708 1.25001,-0.5124 0.34141,-0.3416 0.51212,-0.7582 0.51214,-1.2497 -2e-5,-0.246 -0.0444,-0.4748 -0.1332,-0.6866 -0.0888,-0.2118 -0.21512,-0.3962 -0.37894,-0.5531 -0.16384,-0.157 -0.35165,-0.2833 -0.56341,-0.379 -0.21178,-0.096 -0.44065,-0.1435 -0.6866,-0.1435 l -8.27795,0 0,2.9303 c -1e-5,0.1638 0.058,0.3038 0.17415,0.4199 0.1161,0.1161 0.25606,0.1741 0.4199,0.1741 z"
         style=""
         id="path3049" />
      <path
         d="m 390.89338,1022.6926 2.97151,0 0,7.1512 c -2e-5,0.6557 -0.123,1.2704 -0.36894,1.844 -0.24597,0.5737 -0.58406,1.0756 -1.01427,1.5058 -0.43023,0.4302 -0.93225,0.7718 -1.50607,1.0246 -0.57385,0.2528 -1.18864,0.3792 -1.84438,0.3792 l -1.55704,0 0,3.2579 -2.99152,0 0,-3.2579 -1.96725,0 c -0.65575,0 -1.27044,-0.1264 -1.84406,-0.3792 -0.57363,-0.2528 -1.07565,-0.5944 -1.50608,-1.0246 -0.43043,-0.4302 -0.77195,-0.9321 -1.02458,-1.5058 -0.25263,-0.5736 -0.37894,-1.1883 -0.37894,-1.844 l 0,-7.1512 2.99152,0 0,7.1512 c -10e-6,0.4915 0.17081,0.908 0.51244,1.2497 0.34163,0.3416 0.7582,0.5124 1.2497,0.5124 l 6.51581,0 c 0.24595,0 0.47482,-0.044 0.6866,-0.1332 0.21176,-0.089 0.39623,-0.2152 0.55341,-0.3792 0.15715,-0.1641 0.28346,-0.3519 0.37894,-0.5634 0.0955,-0.2116 0.14318,-0.4404 0.1432,-0.6863 z"
         style=""
         id="path3051" />
      <path
         d="m 405.67964,1022.7127 6.43389,-0.02 c 0.55986,10e-5 1.09252,0.092 1.598,0.2764 0.50545,0.1843 0.96308,0.4404 1.37289,0.7682 0.40977,0.3279 0.75808,0.7207 1.0449,1.1784 0.2868,0.4578 0.4917,0.9597 0.61469,1.5058 -2e-5,0 0.0342,0.1435 0.10255,0.4305 0.0684,0.2871 0.14694,0.6389 0.23575,1.0556 0.0888,0.4167 0.18778,0.8708 0.29702,1.3625 0.10921,0.4918 0.21166,0.946 0.30735,1.3626 0.0956,0.4167 0.17423,0.765 0.23574,1.0449 0.0615,0.28 0.0922,0.4199 0.0922,0.4199 0.0408,0.1639 0.0682,0.3312 0.0819,0.5022 0.0137,0.1709 0.0206,0.3383 0.0206,0.5021 -2e-5,0.6557 -0.123,1.2704 -0.36894,1.844 -0.24597,0.5737 -0.58406,1.0757 -1.01427,1.5061 -0.43023,0.4304 -0.93569,0.772 -1.51639,1.0246 -0.58073,0.2526 -1.19875,0.3789 -1.85407,0.3789 l -7.66389,-0.021 c -0.4915,0 -0.9558,-0.092 -1.3929,-0.2767 -0.4371,-0.1845 -0.81958,-0.4405 -1.14745,-0.7682 -0.32788,-0.3277 -0.58405,-0.7067 -0.76852,-1.1371 -0.18447,-0.4305 -0.2767,-0.8914 -0.2767,-1.3829 l 0,-7.9916 c 0,-0.4919 0.0922,-0.953 0.2767,-1.3832 0.18447,-0.4302 0.44064,-0.8092 0.76852,-1.1371 0.32787,-0.3279 0.70692,-0.5841 1.13714,-0.7685 0.43021,-0.1845 0.89128,-0.2767 1.3832,-0.2767 z m 0.02,12.1511 7.6839,0 c 0.24595,0 0.47481,-0.044 0.6866,-0.1332 0.21176,-0.089 0.39623,-0.2152 0.55341,-0.3792 0.15715,-0.1641 0.28346,-0.3519 0.37894,-0.5634 0.0955,-0.2116 0.14318,-0.4404 0.1432,-0.6863 -2e-5,-0.068 -0.003,-0.1299 -0.01,-0.1845 -0.007,-0.055 -0.0169,-0.1161 -0.0306,-0.1845 l -1.27064,-5.676 c -0.0955,-0.396 -0.30371,-0.7238 -0.6247,-0.9833 -0.321,-0.2595 -0.6864,-0.3892 -1.09618,-0.3892 l -6.41388,0 c -0.16384,0 -0.30381,0.058 -0.4199,0.1741 -0.11611,0.1161 -0.17416,0.2561 -0.17415,0.4199 l 0,7.9916 c -10e-6,0.1638 0.058,0.3038 0.17415,0.4199 0.11609,0.1161 0.25606,0.1741 0.4199,0.1741 z"
         style=""
         id="path3053" />
      <path
         d="m 422.56509,1027.5076 9.24094,2.7051 c 0.43729,0.1226 0.84031,0.3034 1.20905,0.5425 0.36872,0.2391 0.68627,0.5225 0.95267,0.8504 0.26638,0.3279 0.47815,0.6934 0.63533,1.0965 0.15715,0.4031 0.23573,0.83 0.23574,1.2807 -10e-6,0.5327 -0.10246,1.0348 -0.30734,1.506 -0.20491,0.4713 -0.48151,0.8811 -0.8298,1.2294 -0.34831,0.3483 -0.75811,0.6249 -1.22937,0.8298 -0.4713,0.2049 -0.97332,0.3073 -1.50608,0.3073 l -11.53586,0 0,-2.8889 11.53586,0 c 0.27304,0 0.50524,-0.096 0.6966,-0.287 0.19134,-0.1914 0.28701,-0.4236 0.28702,-0.6966 -1e-5,-0.2322 -0.0717,-0.4304 -0.2151,-0.5944 -0.14342,-0.164 -0.32456,-0.28 -0.54341,-0.348 l -9.24094,-2.7051 c -0.42355,-0.123 -0.82313,-0.304 -1.19873,-0.5431 -0.37561,-0.2391 -0.69661,-0.5226 -0.96299,-0.8504 -0.26639,-0.3279 -0.47816,-0.6933 -0.63533,-1.0962 -0.15716,-0.4029 -0.23574,-0.8297 -0.23574,-1.2804 0,-0.5327 0.10245,-1.0347 0.30734,-1.506 0.2049,-0.4713 0.4816,-0.8811 0.83011,-1.2294 0.34851,-0.3483 0.75841,-0.6249 1.22969,-0.8298 0.47128,-0.2049 0.97309,-0.3073 1.50545,-0.3074 l 11.51585,0 0,2.889 -11.51585,0 c -0.27306,0 -0.50515,0.096 -0.69629,0.2867 -0.19114,0.1912 -0.28671,0.4235 -0.28671,0.6969 0,0.2322 0.0717,0.4303 0.21511,0.5941 0.1434,0.1638 0.32433,0.2799 0.54278,0.3483 z"
         style=""
         id="path3055" />
      <path
         d="m 452.31895,1022.6926 0,2.9916 -6.639,0 0,12.1711 -2.97088,0 0,-12.1711 -6.57772,0 0,-2.9916 z"
         style=""
         id="path3057" />
      <path
         d="m 462.66859,1039.8426 c -0.49192,-0.765 -0.9359,-1.5265 -1.33193,-2.2846 -0.39603,-0.7581 -0.73412,-1.5298 -1.01426,-2.3152 -0.28015,-0.7854 -0.49526,-1.5879 -0.64533,-2.4075 -0.15008,-0.8196 -0.22512,-1.6802 -0.22512,-2.5819 0,-1.6121 0.27316,-3.2377 0.81948,-4.8769 0.54632,-1.6391 1.34537,-3.1622 2.39716,-4.5692 l 2.39747,0 c -0.98343,1.5437 -1.68003,3.0873 -2.08982,4.6308 -0.40979,1.5435 -0.61469,3.1486 -0.61468,4.8153 -10e-6,1.7213 0.20822,3.3571 0.62469,4.9075 0.41646,1.5503 1.10972,3.1109 2.07981,4.6817 l -2.39747,0 z"
         style=""
         id="path3059" />
      <path
         d="m 483.84495,1022.6926 3.0528,0 -2.54066,11.4334 c -0.123,0.5465 -0.33134,1.0485 -0.62501,1.506 -0.29371,0.4576 -0.64545,0.8503 -1.05522,1.1781 -0.40981,0.3279 -0.86744,0.5841 -1.37289,0.7685 -0.50548,0.1845 -1.03814,0.2767 -1.59799,0.2767 l -10.28648,0 c -0.65575,0 -1.27044,-0.1263 -1.84406,-0.3789 -0.57363,-0.2526 -1.07565,-0.5942 -1.50608,-1.0246 -0.43043,-0.4304 -0.77196,-0.9324 -1.02458,-1.5061 -0.25263,-0.5736 -0.37895,-1.1883 -0.37895,-1.844 l 0,-10.4091 2.99152,0 0,10.4091 c 0,0.4915 0.17082,0.9081 0.51245,1.2497 0.34163,0.3416 0.7582,0.5124 1.2497,0.5124 l 4.03643,0 0,-12.1712 2.99214,0 0,12.1712 3.25791,0 c 0.40977,0 0.7786,-0.1297 1.10649,-0.3892 0.32786,-0.2595 0.53265,-0.5875 0.61438,-0.984 z"
         style=""
         id="path3061" />
      <path
         d="m 506.77662,1022.6926 3.05281,0 -2.54067,11.4334 c -0.123,0.5465 -0.33133,1.0485 -0.62501,1.506 -0.29371,0.4576 -0.64545,0.8503 -1.05522,1.1781 -0.40981,0.3279 -0.86744,0.5841 -1.37288,0.7685 -0.50549,0.1845 -1.03815,0.2767 -1.598,0.2767 l -10.28648,0 c -0.65575,0 -1.27044,-0.1263 -1.84406,-0.3789 -0.57363,-0.2526 -1.07565,-0.5942 -1.50608,-1.0246 -0.43043,-0.4304 -0.77195,-0.9324 -1.02458,-1.5061 -0.25263,-0.5736 -0.37894,-1.1883 -0.37894,-1.844 l 0,-10.4091 2.99152,0 0,10.4091 c -10e-6,0.4915 0.17081,0.9081 0.51244,1.2497 0.34163,0.3416 0.7582,0.5124 1.2497,0.5124 l 4.03643,0 0,-12.1712 2.99214,0 0,12.1712 3.25791,0 c 0.40977,0 0.77861,-0.1297 1.1065,-0.3892 0.32785,-0.2595 0.53265,-0.5875 0.61437,-0.984 z"
         style=""
         id="path3063" />
      <path
         d="m 529.70826,1022.6926 3.05281,0 -2.54067,11.4334 c -0.123,0.5465 -0.33133,1.0485 -0.625,1.506 -0.29371,0.4576 -0.64546,0.8503 -1.05523,1.1781 -0.40981,0.3279 -0.86744,0.5841 -1.37288,0.7685 -0.50548,0.1845 -1.03815,0.2767 -1.598,0.2767 l -10.28648,0 c -0.65575,0 -1.27044,-0.1263 -1.84406,-0.3789 -0.57363,-0.2526 -1.07565,-0.5942 -1.50608,-1.0246 -0.43043,-0.4304 -0.77195,-0.9324 -1.02458,-1.5061 -0.25263,-0.5736 -0.37894,-1.1883 -0.37894,-1.844 l 0,-10.4091 2.99152,0 0,10.4091 c -10e-6,0.4915 0.17081,0.9081 0.51244,1.2497 0.34163,0.3416 0.7582,0.5124 1.2497,0.5124 l 4.03643,0 0,-12.1712 2.99214,0 0,12.1712 3.25791,0 c 0.40977,0 0.77861,-0.1297 1.1065,-0.3892 0.32786,-0.2595 0.53265,-0.5875 0.61437,-0.984 z"
         style=""
         id="path3065" />
      <path
         d="m 533.46082,1037.8553 0,-3.2991 2.99152,0 0,3.2991 z"
         style=""
         id="path3067" />
      <path
         d="m 552.6568,1026.4014 2.58194,11.4539 -3.07343,0 c -0.123,-0.5465 -0.24931,-1.1202 -0.37895,-1.7211 -0.12966,-0.601 -0.26285,-1.2054 -0.39958,-1.8135 -0.13674,-0.608 -0.27338,-1.209 -0.40989,-1.8031 -0.13654,-0.594 -0.2663,-1.1574 -0.38926,-1.6902 -0.28683,-1.2569 -0.56697,-2.5138 -0.84043,-3.7707 -0.0955,-0.396 -0.30371,-0.7238 -0.62469,-0.9833 -0.32101,-0.2595 -0.6864,-0.3892 -1.09618,-0.3892 l -5.40963,0 c -0.4915,0 -0.90807,0.1707 -1.24969,0.5121 -0.34164,0.3414 -0.51245,0.7581 -0.51245,1.25 l 0,10.409 -2.99152,0 0,-10.409 c 0,-0.6557 0.12631,-1.2739 0.37894,-1.8544 0.25263,-0.5805 0.59416,-1.0859 1.02458,-1.5164 0.43043,-0.4304 0.93246,-0.7685 1.50608,-1.0142 0.57362,-0.2458 1.18831,-0.3686 1.84406,-0.3687 l 5.40963,0 c 0.55985,10e-5 1.09252,0.092 1.598,0.2764 0.50545,0.1843 0.96308,0.4404 1.37288,0.7682 0.40978,0.3279 0.75819,0.7207 1.04522,1.1784 0.28701,0.4578 0.4918,0.953 0.61437,1.4858 z"
         style=""
         id="path3069" />
      <path
         d="m 555.91217,1027.4463 c 0,-0.6557 0.12632,-1.2739 0.37894,-1.8544 0.25263,-0.5805 0.59416,-1.0859 1.02459,-1.5164 0.43042,-0.4304 0.93245,-0.7685 1.50608,-1.0142 0.57362,-0.2458 1.1883,-0.3686 1.84406,-0.3687 l 6.51581,0 c 0.65574,10e-5 1.27053,0.1229 1.84437,0.3687 0.57382,0.2457 1.07585,0.5838 1.50608,1.0142 0.4302,0.4305 0.76829,0.9359 1.01427,1.5164 0.24594,0.5805 0.36892,1.1987 0.36893,1.8544 l 0,5.6554 c -10e-6,0.6557 -0.12299,1.2704 -0.36893,1.844 -0.24598,0.5737 -0.58407,1.0757 -1.01427,1.5061 -0.43023,0.4304 -0.93226,0.772 -1.50608,1.0246 -0.57384,0.2526 -1.18863,0.3789 -1.84437,0.3789 l -6.51581,0 c -0.65576,0 -1.27044,-0.1263 -1.84406,-0.3789 -0.57363,-0.2526 -1.07566,-0.5942 -1.50608,-1.0246 -0.43043,-0.4304 -0.77196,-0.9324 -1.02459,-1.5061 -0.25262,-0.5736 -0.37894,-1.1883 -0.37894,-1.844 z m 2.99152,5.6554 c 0,0.4915 0.17081,0.9081 0.51245,1.2497 0.34163,0.3416 0.75819,0.5124 1.2497,0.5124 l 6.51581,0 c 0.24594,0 0.47481,-0.044 0.6866,-0.1332 0.21176,-0.089 0.39623,-0.2152 0.5534,-0.3792 0.15715,-0.1641 0.28347,-0.3519 0.37895,-0.5634 0.0954,-0.2116 0.14318,-0.4404 0.14319,-0.6863 l 0,-5.6554 c -1e-5,-0.2459 -0.0477,-0.4748 -0.14319,-0.6866 -0.0955,-0.2118 -0.2218,-0.3996 -0.37895,-0.5634 -0.15717,-0.1638 -0.34164,-0.2901 -0.5534,-0.3789 -0.21179,-0.089 -0.44066,-0.1332 -0.6866,-0.1332 l -6.51581,0 c -0.49151,0 -0.90807,0.1707 -1.2497,0.5121 -0.34164,0.3414 -0.51245,0.7581 -0.51245,1.25 z"
         style=""
         id="path3071" />
      <path
         d="m 576.76342,1027.5076 9.24095,2.7051 c 0.43729,0.1226 0.8403,0.3034 1.20905,0.5425 0.36871,0.2391 0.68627,0.5225 0.95267,0.8504 0.26637,0.3279 0.47814,0.6934 0.63532,1.0965 0.15715,0.4031 0.23573,0.83 0.23575,1.2807 -2e-5,0.5327 -0.10247,1.0348 -0.30735,1.506 -0.20491,0.4713 -0.48151,0.8811 -0.82979,1.2294 -0.34832,0.3483 -0.75811,0.6249 -1.22938,0.8298 -0.47129,0.2049 -0.97332,0.3073 -1.50608,0.3073 l -11.53586,0 0,-2.8889 11.53586,0 c 0.27305,0 0.50525,-0.096 0.69661,-0.287 0.19133,-0.1914 0.28701,-0.4236 0.28702,-0.6966 -10e-6,-0.2322 -0.0717,-0.4304 -0.21511,-0.5944 -0.14342,-0.164 -0.32455,-0.28 -0.5434,-0.348 l -9.24095,-2.7051 c -0.42355,-0.123 -0.82313,-0.304 -1.19873,-0.5431 -0.37561,-0.2391 -0.69661,-0.5226 -0.96299,-0.8504 -0.26639,-0.3279 -0.47816,-0.6933 -0.63532,-1.0962 -0.15717,-0.4029 -0.23575,-0.8297 -0.23575,-1.2804 0,-0.5327 0.10245,-1.0347 0.30735,-1.506 0.20489,-0.4713 0.48159,-0.8811 0.83011,-1.2294 0.3485,-0.3483 0.7584,-0.6249 1.22968,-0.8298 0.47128,-0.2049 0.9731,-0.3073 1.50546,-0.3074 l 11.51585,0 0,2.889 -11.51585,0 c -0.27306,0 -0.50516,0.096 -0.6963,0.2867 -0.19114,0.1912 -0.28671,0.4235 -0.2867,0.6969 -10e-6,0.2322 0.0717,0.4303 0.2151,0.5941 0.14341,0.1638 0.32433,0.2799 0.54278,0.3483 z"
         style=""
         id="path3073" />
      <path
         d="m 590.32965,1027.4463 c 0,-0.6557 0.12632,-1.2739 0.37895,-1.8544 0.25262,-0.5805 0.59415,-1.0859 1.02458,-1.5164 0.43042,-0.4304 0.93245,-0.7685 1.50608,-1.0142 0.57362,-0.2458 1.1883,-0.3686 1.84406,-0.3687 l 6.51581,0 c 0.65574,10e-5 1.27053,0.1229 1.84437,0.3687 0.57382,0.2457 1.07585,0.5838 1.50608,1.0142 0.4302,0.4305 0.76829,0.9359 1.01427,1.5164 0.24594,0.5805 0.36892,1.1987 0.36893,1.8544 l 0,5.6554 c -10e-6,0.6557 -0.12299,1.2704 -0.36893,1.844 -0.24598,0.5737 -0.58407,1.0757 -1.01427,1.5061 -0.43023,0.4304 -0.93226,0.772 -1.50608,1.0246 -0.57384,0.2526 -1.18863,0.3789 -1.84437,0.3789 l -6.51581,0 c -0.65576,0 -1.27044,-0.1263 -1.84406,-0.3789 -0.57363,-0.2526 -1.07566,-0.5942 -1.50608,-1.0246 -0.43043,-0.4304 -0.77196,-0.9324 -1.02458,-1.5061 -0.25263,-0.5736 -0.37895,-1.1883 -0.37895,-1.844 z m 2.99152,5.6554 c 0,0.4915 0.17082,0.9081 0.51245,1.2497 0.34163,0.3416 0.75819,0.5124 1.2497,0.5124 l 6.51581,0 c 0.24594,0 0.47481,-0.044 0.6866,-0.1332 0.21176,-0.089 0.39623,-0.2152 0.5534,-0.3792 0.15715,-0.1641 0.28347,-0.3519 0.37895,-0.5634 0.0955,-0.2116 0.14318,-0.4404 0.14319,-0.6863 l 0,-5.6554 c -10e-6,-0.2459 -0.0477,-0.4748 -0.14319,-0.6866 -0.0955,-0.2118 -0.2218,-0.3996 -0.37895,-0.5634 -0.15717,-0.1638 -0.34164,-0.2901 -0.5534,-0.3789 -0.21179,-0.089 -0.44066,-0.1332 -0.6866,-0.1332 l -6.51581,0 c -0.49151,0 -0.90807,0.1707 -1.2497,0.5121 -0.34163,0.3414 -0.51245,0.7581 -0.51245,1.25 z"
         style=""
         id="path3075" />
      <path
         d="m 620.13545,1032.9579 -9.0571,0 c -0.19135,0.82 -0.37915,1.6534 -0.56341,2.5003 -0.18427,0.8469 -0.36519,1.6459 -0.54278,2.3971 l -3.05342,0 2.58193,-11.4539 c 0.12298,-0.5328 0.32788,-1.028 0.61469,-1.4858 0.28681,-0.4577 0.63511,-0.8505 1.04491,-1.1784 0.40978,-0.3278 0.87085,-0.5839 1.3832,-0.7682 0.51234,-0.1842 1.04177,-0.2763 1.58831,-0.2764 l 2.95024,0 c 0.56028,10e-5 1.09315,0.092 1.59863,0.2764 0.50545,0.1843 0.96308,0.4404 1.37288,0.7682 0.40978,0.3279 0.75808,0.7207 1.04491,1.1784 0.2868,0.4578 0.49169,0.953 0.61469,1.4858 l 2.58193,11.4539 -3.05342,0 c -0.17761,-0.7512 -0.35864,-1.5502 -0.54309,-2.3971 -0.18448,-0.8469 -0.37218,-1.6803 -0.5631,-2.5003 z m -8.38051,-2.9916 7.70392,0 c -0.0955,-0.4368 -0.18084,-0.8294 -0.25607,-1.1777 -0.0753,-0.3483 -0.14686,-0.6523 -0.2148,-0.9121 -0.0684,-0.3005 -0.12987,-0.5738 -0.18447,-0.8198 -0.0959,-0.396 -0.30433,-0.7238 -0.62531,-0.9833 -0.32101,-0.2595 -0.6864,-0.3892 -1.09619,-0.3892 l -2.95024,0 c -0.4098,0 -0.77864,0.1297 -1.1065,0.3892 -0.32788,0.2595 -0.53288,0.5873 -0.615,0.9833 -0.0546,0.246 -0.11611,0.5193 -0.18447,0.8198 -0.0684,0.2598 -0.13664,0.5638 -0.20479,0.9121 -0.0682,0.3483 -0.15686,0.7409 -0.26608,1.1777 z"
         style=""
         id="path3077" />
      <path
         d="m 636.13673,1022.6926 c 0.65573,10e-5 1.27052,0.1229 1.84437,0.3687 0.57382,0.2457 1.07585,0.5838 1.50608,1.0142 0.4302,0.4305 0.76829,0.9359 1.01426,1.5164 0.24595,0.5805 0.36892,1.1987 0.36894,1.8544 -2e-5,0.5465 -0.0922,1.0724 -0.2767,1.5777 -0.18449,0.5053 -0.44066,0.9628 -0.76852,1.3726 -0.32789,0.4098 -0.72059,0.7616 -1.1781,1.0555 -0.45753,0.2939 -0.95268,0.5021 -1.48544,0.6247 l -9.30285,2.1111 0,3.6674 -2.99152,0 0,-11.5771 c 0,-0.4919 0.0922,-0.953 0.2767,-1.3832 0.18447,-0.4302 0.44064,-0.8092 0.76852,-1.1371 0.32787,-0.3279 0.70692,-0.5841 1.13714,-0.7685 0.43022,-0.1845 0.89128,-0.2767 1.3832,-0.2767 0.96966,0 1.81988,-0 2.55067,-0.01 0.73078,-0.01 1.366,-0.01 1.90566,-0.01 0.53964,10e-5 0.99383,10e-5 1.36257,0 0.36871,10e-5 0.67606,10e-5 0.92203,0 z m 0.36893,6.4746 c 0.39603,-0.096 0.72724,-0.3037 0.99363,-0.6247 0.26638,-0.321 0.39957,-0.6864 0.39958,-1.0962 -10e-6,-0.2459 -0.0477,-0.4748 -0.1432,-0.6866 -0.0955,-0.2118 -0.22179,-0.3996 -0.37894,-0.5634 -0.15717,-0.1638 -0.34164,-0.2901 -0.55341,-0.3789 -0.21178,-0.089 -0.44065,-0.1332 -0.68659,-0.1332 l -7.68391,0 c -0.16383,0 -0.3038,0.058 -0.4199,0.1741 -0.1161,0.1161 -0.17415,0.2561 -0.17415,0.4199 l 0,4.8562 c 0.39603,-0.095 0.81948,-0.1944 1.27033,-0.297 0.45085,-0.1025 0.91536,-0.2084 1.39352,-0.3177 0.47816,-0.1092 0.95632,-0.2184 1.43448,-0.3276 0.47815,-0.1092 0.94256,-0.2118 1.39321,-0.3077 1.05177,-0.2459 2.10356,-0.485 3.15535,-0.7172 z"
         style=""
         id="path3079" />
      <path
         d="m 645.24134,1022.7127 c 0.96966,0 1.81988,-0 2.55068,-0.01 0.73078,-0.01 1.36599,-0.01 1.90565,-0.01 0.53964,10e-5 0.99383,10e-5 1.36257,0 0.36872,10e-5 0.67606,10e-5 0.92203,0 l 0.96299,0 c 0.65574,10e-5 1.27053,0.1229 1.84437,0.3687 0.57382,0.2457 1.07585,0.5838 1.50608,1.0142 0.4302,0.4305 0.76829,0.9359 1.01427,1.5164 0.24594,0.5805 0.36892,1.1987 0.36893,1.8544 -10e-6,0.5465 -0.0922,1.0759 -0.2767,1.588 -0.18448,0.5121 -0.44066,0.9731 -0.76852,1.3829 -0.32788,0.4098 -0.72058,0.7582 -1.17809,1.0452 -0.45754,0.287 -0.95269,0.4918 -1.48545,0.6144 -1.12016,0.2459 -1.9808,0.4373 -2.58193,0.574 -0.60115,0.1368 -1.04513,0.2391 -1.33193,0.3071 l -0.57342,0.1231 c -0.20511,0.041 -0.37259,0.1434 -0.50244,0.3074 -0.12986,0.164 -0.19479,0.3553 -0.19478,0.5737 -1e-5,0.246 0.0854,0.4578 0.25638,0.6353 0.17091,0.1776 0.38602,0.2664 0.64532,0.2664 l 7.45879,0 0,2.9915 -7.45879,0 c -0.53277,0 -1.03814,-0.1024 -1.51608,-0.3073 -0.47796,-0.2049 -0.89119,-0.4815 -1.23969,-0.8298 -0.34852,-0.3483 -0.62522,-0.7615 -0.83011,-1.2397 -0.2049,-0.4781 -0.30735,-0.9836 -0.30734,-1.5164 -10e-6,-0.4506 0.0751,-0.8843 0.22542,-1.301 0.15028,-0.4166 0.36206,-0.7923 0.63533,-1.1271 0.27325,-0.3347 0.59769,-0.6217 0.9733,-0.8607 0.3756,-0.2391 0.78206,-0.4064 1.21937,-0.5019 l 4.46665,-1.0042 c 0.39602,-0.096 0.72723,-0.3037 0.99363,-0.6247 0.26637,-0.321 0.39956,-0.6864 0.39957,-1.0962 -10e-6,-0.2459 -0.0477,-0.4748 -0.14319,-0.6866 -0.0955,-0.2118 -0.2218,-0.3996 -0.37895,-0.5634 -0.15717,-0.1638 -0.34164,-0.2901 -0.5534,-0.3789 -0.21179,-0.089 -0.44065,-0.1332 -0.6866,-0.1332 l -7.68391,0 c -0.16383,0 -0.3038,0.058 -0.4199,0.1741 -0.1161,0.1161 -0.17415,0.2561 -0.17415,0.4199 l 0,11.5771 -2.99152,0 0,-11.5771 c 0,-0.4919 0.0922,-0.953 0.27671,-1.3832 0.18446,-0.4302 0.44064,-0.8092 0.76851,-1.1371 0.32788,-0.3279 0.70692,-0.5841 1.13714,-0.7685 0.43022,-0.1845 0.89128,-0.2767 1.3832,-0.2767 z"
         style=""
         id="path3081" />
      <path
         d="m 671.28145,1032.9579 -9.0571,0 c -0.19136,0.82 -0.37916,1.6534 -0.56342,2.5003 -0.18426,0.8469 -0.36518,1.6459 -0.54277,2.3971 l -3.05343,0 2.58194,-11.4539 c 0.12298,-0.5328 0.32787,-1.028 0.61469,-1.4858 0.28681,-0.4577 0.63511,-0.8505 1.0449,-1.1784 0.40979,-0.3278 0.87086,-0.5839 1.3832,-0.7682 0.51234,-0.1842 1.04178,-0.2763 1.58831,-0.2764 l 2.95025,0 c 0.56027,10e-5 1.09315,0.092 1.59862,0.2764 0.50546,0.1843 0.96309,0.4404 1.37289,0.7682 0.40978,0.3279 0.75808,0.7207 1.04491,1.1784 0.28679,0.4578 0.49169,0.953 0.61468,1.4858 l 2.58194,11.4539 -3.05343,0 c -0.1776,-0.7512 -0.35863,-1.5502 -0.54308,-2.3971 -0.18449,-0.8469 -0.37219,-1.6803 -0.5631,-2.5003 z m -8.38051,-2.9916 7.70391,0 c -0.0955,-0.4368 -0.18083,-0.8294 -0.25606,-1.1777 -0.0753,-0.3483 -0.14686,-0.6523 -0.2148,-0.9121 -0.0684,-0.3005 -0.12987,-0.5738 -0.18447,-0.8198 -0.0959,-0.396 -0.30433,-0.7238 -0.62532,-0.9833 -0.321,-0.2595 -0.6864,-0.3892 -1.09618,-0.3892 l -2.95025,0 c -0.4098,0 -0.77863,0.1297 -1.1065,0.3892 -0.32788,0.2595 -0.53288,0.5873 -0.615,0.9833 -0.0546,0.246 -0.1161,0.5193 -0.18447,0.8198 -0.0684,0.2598 -0.13663,0.5638 -0.20479,0.9121 -0.0682,0.3483 -0.15685,0.7409 -0.26607,1.1777 z"
         style=""
         id="path3083" />
      <path
         d="m 679.57875,1022.7127 6.43389,-0.02 c 0.55986,10e-5 1.09252,0.092 1.598,0.2764 0.50545,0.1843 0.96308,0.4404 1.37288,0.7682 0.40978,0.3279 0.75808,0.7207 1.04491,1.1784 0.2868,0.4578 0.49169,0.9597 0.61469,1.5058 -2e-5,0 0.0342,0.1435 0.10255,0.4305 0.0684,0.2871 0.14693,0.6389 0.23574,1.0556 0.0888,0.4167 0.18779,0.8708 0.29703,1.3625 0.10921,0.4918 0.21166,0.946 0.30734,1.3626 0.0957,0.4167 0.17424,0.765 0.23575,1.0449 0.0615,0.28 0.0922,0.4199 0.0922,0.4199 0.0408,0.1639 0.0681,0.3312 0.0819,0.5022 0.0137,0.1709 0.0206,0.3383 0.0206,0.5021 -2e-5,0.6557 -0.123,1.2704 -0.36894,1.844 -0.24598,0.5737 -0.58406,1.0757 -1.01427,1.5061 -0.43023,0.4304 -0.93569,0.772 -1.51639,1.0246 -0.58073,0.2526 -1.19875,0.3789 -1.85407,0.3789 l -7.66389,-0.021 c -0.49151,0 -0.9558,-0.092 -1.3929,-0.2767 -0.4371,-0.1845 -0.81958,-0.4405 -1.14746,-0.7682 -0.32787,-0.3277 -0.58404,-0.7067 -0.76851,-1.1371 -0.18447,-0.4305 -0.2767,-0.8914 -0.2767,-1.3829 l 0,-7.9916 c 0,-0.4919 0.0922,-0.953 0.2767,-1.3832 0.18447,-0.4302 0.44064,-0.8092 0.76851,-1.1371 0.32788,-0.3279 0.70692,-0.5841 1.13714,-0.7685 0.43022,-0.1845 0.89129,-0.2767 1.38321,-0.2767 z m 0.02,12.1511 7.6839,0 c 0.24595,0 0.47481,-0.044 0.6866,-0.1332 0.21176,-0.089 0.39623,-0.2152 0.55341,-0.3792 0.15715,-0.1641 0.28346,-0.3519 0.37894,-0.5634 0.0955,-0.2116 0.14318,-0.4404 0.1432,-0.6863 -2e-5,-0.068 -0.003,-0.1299 -0.01,-0.1845 -0.007,-0.055 -0.0169,-0.1161 -0.0306,-0.1845 l -1.27065,-5.676 c -0.0955,-0.396 -0.3037,-0.7238 -0.62469,-0.9833 -0.321,-0.2595 -0.6864,-0.3892 -1.09618,-0.3892 l -6.41388,0 c -0.16384,0 -0.30381,0.058 -0.4199,0.1741 -0.11611,0.1161 -0.17416,0.2561 -0.17415,0.4199 l 0,7.9916 c -1e-5,0.1638 0.058,0.3038 0.17415,0.4199 0.11609,0.1161 0.25606,0.1741 0.4199,0.1741 z"
         style=""
         id="path3085" />
      <path
         d="m 693.02185,1022.6926 2.95088,0 0,15.1627 -2.95088,0 z"
         style=""
         id="path3087" />
      <path
         d="m 697.26398,1027.4463 c 0,-0.6557 0.12631,-1.2739 0.37894,-1.8544 0.25263,-0.5805 0.59416,-1.0859 1.02458,-1.5164 0.43043,-0.4304 0.93246,-0.7685 1.50608,-1.0142 0.57362,-0.2458 1.18831,-0.3686 1.84406,-0.3687 l 6.51581,0 c 0.65574,10e-5 1.27053,0.1229 1.84438,0.3687 0.57382,0.2457 1.07584,0.5838 1.50608,1.0142 0.4302,0.4305 0.76829,0.9359 1.01426,1.5164 0.24594,0.5805 0.36892,1.1987 0.36894,1.8544 l 0,5.6554 c -2e-5,0.6557 -0.123,1.2704 -0.36894,1.844 -0.24597,0.5737 -0.58406,1.0757 -1.01426,1.5061 -0.43024,0.4304 -0.93226,0.772 -1.50608,1.0246 -0.57385,0.2526 -1.18864,0.3789 -1.84438,0.3789 l -6.51581,0 c -0.65575,0 -1.27044,-0.1263 -1.84406,-0.3789 -0.57362,-0.2526 -1.07565,-0.5942 -1.50608,-1.0246 -0.43042,-0.4304 -0.77195,-0.9324 -1.02458,-1.5061 -0.25263,-0.5736 -0.37894,-1.1883 -0.37894,-1.844 z m 2.99152,5.6554 c 0,0.4915 0.17081,0.9081 0.51245,1.2497 0.34162,0.3416 0.75819,0.5124 1.24969,0.5124 l 6.51581,0 c 0.24595,0 0.47482,-0.044 0.6866,-0.1332 0.21177,-0.089 0.39623,-0.2152 0.55341,-0.3792 0.15715,-0.1641 0.28346,-0.3519 0.37894,-0.5634 0.0955,-0.2116 0.14319,-0.4404 0.1432,-0.6863 l 0,-5.6554 c -1e-5,-0.2459 -0.0478,-0.4748 -0.1432,-0.6866 -0.0955,-0.2118 -0.22179,-0.3996 -0.37894,-0.5634 -0.15718,-0.1638 -0.34164,-0.2901 -0.55341,-0.3789 -0.21178,-0.089 -0.44065,-0.1332 -0.6866,-0.1332 l -6.51581,0 c -0.4915,0 -0.90807,0.1707 -1.24969,0.5121 -0.34164,0.3414 -0.51245,0.7581 -0.51245,1.25 z"
         style=""
         id="path3089" />
      <path
         d="m 714.67285,1037.8553 0,-3.2991 2.99152,0 0,3.2991 z"
         style=""
         id="path3091" />
      <path
         d="m 732.1067,1022.6926 2.97151,0 0,10.4091 c -2e-5,0.6557 -0.123,1.2704 -0.36894,1.844 -0.24598,0.5737 -0.58406,1.0757 -1.01427,1.5061 -0.43023,0.4304 -0.93226,0.772 -1.50608,1.0246 -0.57384,0.2526 -1.18863,0.3789 -1.84437,0.3789 l -6.51581,0 c -0.65575,0 -1.27044,-0.1263 -1.84406,-0.3789 -0.57363,-0.2526 -1.07565,-0.5942 -1.50608,-1.0246 -0.43043,-0.4304 -0.77195,-0.9324 -1.02458,-1.5061 -0.25263,-0.5736 -0.37894,-1.1883 -0.37894,-1.844 l 0,-10.4091 2.99151,0 0,10.4091 c 0,0.4915 0.17082,0.9081 0.51245,1.2497 0.34163,0.3416 0.7582,0.5124 1.2497,0.5124 l 6.51581,0 c 0.24595,0 0.47481,-0.044 0.6866,-0.1332 0.21176,-0.089 0.39623,-0.2152 0.55341,-0.3792 0.15715,-0.1641 0.28346,-0.3519 0.37894,-0.5634 0.0955,-0.2116 0.14318,-0.4404 0.1432,-0.6863 z"
         style=""
         id="path3093" />
      <path
         d="m 739.92632,1027.5076 9.24095,2.7051 c 0.43729,0.1226 0.84031,0.3034 1.20905,0.5425 0.36871,0.2391 0.68627,0.5225 0.95267,0.8504 0.26637,0.3279 0.47815,0.6934 0.63532,1.0965 0.15715,0.4031 0.23573,0.83 0.23575,1.2807 -2e-5,0.5327 -0.10246,1.0348 -0.30734,1.506 -0.20492,0.4713 -0.48151,0.8811 -0.8298,1.2294 -0.34832,0.3483 -0.75811,0.6249 -1.22938,0.8298 -0.47129,0.2049 -0.97332,0.3073 -1.50607,0.3073 l -11.53586,0 0,-2.8889 11.53586,0 c 0.27304,0 0.50524,-0.096 0.6966,-0.287 0.19133,-0.1914 0.28701,-0.4236 0.28702,-0.6966 -1e-5,-0.2322 -0.0717,-0.4304 -0.21511,-0.5944 -0.14342,-0.164 -0.32455,-0.28 -0.5434,-0.348 l -9.24094,-2.7051 c -0.42355,-0.123 -0.82313,-0.304 -1.19874,-0.5431 -0.37561,-0.2391 -0.6966,-0.5226 -0.96299,-0.8504 -0.26638,-0.3279 -0.47816,-0.6933 -0.63532,-1.0962 -0.15716,-0.4029 -0.23574,-0.8297 -0.23574,-1.2804 0,-0.5327 0.10244,-1.0347 0.30734,-1.506 0.20489,-0.4713 0.4816,-0.8811 0.83011,-1.2294 0.34851,-0.3483 0.7584,-0.6249 1.22969,-0.8298 0.47127,-0.2049 0.97309,-0.3073 1.50545,-0.3074 l 11.51585,0 0,2.889 -11.51585,0 c -0.27306,0 -0.50516,0.096 -0.69629,0.2867 -0.19114,0.1912 -0.28671,0.4235 -0.28671,0.6969 0,0.2322 0.0717,0.4303 0.21511,0.5941 0.1434,0.1638 0.32433,0.2799 0.54277,0.3483 z"
         style=""
         id="path3095" />
      <path
         d="m 754.37363,1039.8426 -2.39747,0 c 0.97008,-1.5708 1.66345,-3.1314 2.08012,-4.6817 0.41667,-1.5504 0.625,-3.1862 0.625,-4.9075 0,-1.6667 -0.205,-3.2718 -0.615,-4.8153 -0.41,-1.5435 -1.1067,-3.0871 -2.09012,-4.6308 l 2.39747,0 c 1.05178,1.407 1.85094,2.9301 2.39747,4.5692 0.54652,1.6392 0.81978,3.2648 0.81979,4.8769 -10e-6,0.9017 -0.0751,1.7623 -0.22543,2.5819 -0.15029,0.8196 -0.3655,1.6221 -0.64564,2.4075 -0.28015,0.7854 -0.61823,1.5571 -1.01427,2.3152 -0.39603,0.7581 -0.84001,1.5196 -1.33192,2.2846 z"
         style=""
         id="path3097" />
    </g>
  </g>
</svg>
