<svg version="1.1" width="110" height="133" xmlns="http://www.w3.org/2000/svg" xmlns:xlink="http://www.w3.org/1999/xlink">
  <defs>
    <linearGradient id="grad_1" x1="97.6133" y1="39.4667" x2="97.6133" y2="154.747" gradientUnits="userSpaceOnUse">
      <stop offset="0" stop-color="#a000fe"/>
      <stop offset="1" stop-color="#ee00ff"/>
    </linearGradient>
    <linearGradient id="grad_2" y2="1">
      <stop offset="0" stop-color="#FFFFFF" stop-opacity="1"/>
      <stop offset="1" stop-color="#E5E5E5" stop-opacity="1"/>
    </linearGradient>
  </defs>
  <!-- Exported by Scratch - http://scratch.mit.edu/ -->
  <g id="ID0.6843271008692682">
    <g id="Layer_1">
      <path id="dp_path001" fill="url(#grad_1)" d="M 99.975 28.403 C 99.975 28.403 100.228 26.408 128.056 46.627 C 155.884 66.845 154.065 67.703 154.065 67.703 C 154.065 67.703 156.040 67.327 145.411 100.040 C 134.782 132.753 133.405 131.289 133.405 131.289 C 133.405 131.289 134.372 133.052 99.975 133.052 C 65.577 133.052 66.544 131.289 66.544 131.289 C 66.544 131.289 65.168 132.755 54.539 100.040 C 43.909 67.325 45.884 67.703 45.884 67.703 C 45.884 67.703 44.065 66.845 71.893 46.627 C 99.721 26.408 99.975 28.403 99.975 28.403 Z " transform="matrix(1, 0, 0, 1, -45, -28.25)"/>
      <path id="dp_path002" fill="url(#grad_2)" d="M 124.104 63.933 C 124.104 64.131 124.043 64.297 123.919 64.440 L 109.117 86.641 C 118.211 102.955 122.764 111.213 122.764 111.405 C 122.764 111.961 122.485 112.252 121.929 112.276 L 106.252 112.963 C 105.844 112.987 105.541 112.820 105.349 112.456 L 96.429 93.436 L 95.596 93.577 L 95.453 109.615 C 95.453 110.171 95.176 110.455 94.620 110.479 L 79.795 111.387 C 79.239 111.387 78.961 111.084 78.961 110.479 L 78.713 62.692 C 78.713 62.117 79.016 61.827 79.616 61.827 L 94.965 61.753 C 95.207 61.753 95.411 61.840 95.577 62.007 C 95.751 62.173 95.831 62.377 95.831 62.617 L 95.615 82.249 L 107.129 63.136 C 107.296 62.821 107.561 62.667 107.920 62.667 L 123.269 63.069 C 123.825 63.069 124.104 63.359 124.104 63.933 Z " transform="matrix(1, 0, 0, 1, -45, -28.25)"/>
      <path id="dp_path003" fill="#F346FF" d="M 66.656 131.312 C 69.641 133.793 129.464 133.833 133.420 131.448 C 137.848 127.865 155.876 68.849 154.099 67.757 C 142.301 113.673 102.629 135.823 66.656 131.312 Z " transform="matrix(1, 0, 0, 1, -45, -28.25)"/>
    </g>
    <g id="ID0.8376980712637305">
      <path id="dp_path003" fill="#FFFFFF" d="M 49.427 161.815 L 49.427 170.773 L 48.719 170.773 L 48.719 145.484 L 49.427 145.484 L 49.427 160.855 L 66.955 145.484 L 68.017 145.484 L 55.800 156.252 L 68.725 170.773 L 67.781 170.773 L 55.236 156.680 Z " transform="matrix(1, 0, 0, 1, -46.55, -38.5)"/>
      <path id="dp_path004" fill="#FFFFFF" d="M 69.681 158.203 C 69.728 157.352 69.905 156.559 70.212 155.815 C 70.519 155.072 70.961 154.428 71.540 153.885 C 72.119 153.345 72.827 152.920 73.661 152.613 C 74.500 152.307 75.485 152.153 76.619 152.153 C 77.421 152.153 78.183 152.236 78.903 152.401 C 79.623 152.567 80.251 152.855 80.793 153.268 C 81.337 153.681 81.773 154.219 82.104 154.880 C 82.435 155.540 82.612 156.364 82.635 157.356 L 82.635 168.932 C 82.635 169.285 82.705 169.545 82.848 169.711 C 82.989 169.876 83.179 169.988 83.415 170.047 C 83.651 170.107 83.899 170.129 84.157 170.117 C 84.417 170.107 84.677 170.088 84.937 170.065 L 84.937 170.773 C 84.583 170.793 84.228 170.803 83.875 170.803 C 83.520 170.803 83.201 170.744 82.919 170.625 C 82.635 170.508 82.399 170.324 82.211 170.076 C 82.021 169.829 81.927 169.469 81.927 168.996 L 81.927 166.624 L 81.856 166.624 C 81.667 167.215 81.367 167.781 80.953 168.324 C 80.537 168.867 80.017 169.351 79.392 169.776 C 78.767 170.200 78.052 170.543 77.247 170.800 C 76.444 171.056 75.571 171.187 74.627 171.187 C 72.805 171.187 71.336 170.773 70.212 169.949 C 69.091 169.124 68.529 167.899 68.529 166.273 C 68.529 165.143 68.713 164.233 69.079 163.549 C 69.445 162.868 69.923 162.331 70.516 161.941 C 71.107 161.555 71.779 161.283 72.535 161.129 C 73.289 160.976 74.048 160.876 74.804 160.828 C 76.055 160.757 77.132 160.693 78.029 160.633 C 78.925 160.575 79.664 160.457 80.245 160.280 C 80.823 160.103 81.248 159.831 81.520 159.465 C 81.791 159.100 81.927 158.575 81.927 157.889 C 81.927 157.347 81.880 156.780 81.785 156.189 C 81.691 155.600 81.461 155.056 81.095 154.561 C 80.729 154.065 80.192 153.657 79.484 153.339 C 78.779 153.020 77.823 152.861 76.619 152.861 C 74.707 152.861 73.219 153.328 72.160 154.260 C 71.097 155.189 70.507 156.505 70.389 158.203 Z M 81.927 160.085 L 81.856 160.085 C 81.620 160.439 81.255 160.699 80.756 160.864 C 80.260 161.029 79.693 161.153 79.056 161.236 C 78.419 161.319 77.733 161.377 76.999 161.413 C 76.267 161.448 75.535 161.489 74.804 161.537 C 74.092 161.584 73.401 161.679 72.729 161.820 C 72.056 161.961 71.460 162.197 70.941 162.525 C 70.419 162.856 70.005 163.323 69.699 163.921 C 69.392 164.523 69.239 165.305 69.239 166.273 C 69.239 166.789 69.327 167.303 69.504 167.811 C 69.681 168.315 69.981 168.764 70.407 169.153 C 70.832 169.543 71.384 169.859 72.056 170.107 C 72.729 170.355 73.561 170.477 74.556 170.477 C 75.736 170.477 76.787 170.277 77.711 169.876 C 78.631 169.477 79.404 168.952 80.029 168.303 C 80.659 167.657 81.131 166.908 81.449 166.060 C 81.768 165.213 81.927 164.340 81.927 163.447 Z " transform="matrix(1, 0, 0, 1, -46.55, -38.5)"/>
      <path id="dp_path005" fill="#FFFFFF" d="M 86.708 145.484 L 87.416 145.484 L 87.416 170.773 L 86.708 170.773 Z " transform="matrix(1, 0, 0, 1, -46.55, -38.5)"/>
      <path id="dp_path006" fill="#FFFFFF" d="M 91.305 158.203 C 91.352 157.352 91.529 156.559 91.836 155.815 C 92.143 155.072 92.585 154.428 93.164 153.885 C 93.743 153.345 94.451 152.920 95.285 152.613 C 96.124 152.307 97.109 152.153 98.243 152.153 C 99.045 152.153 99.807 152.236 100.527 152.401 C 101.247 152.567 101.875 152.855 102.417 153.268 C 102.961 153.681 103.397 154.219 103.728 154.880 C 104.059 155.540 104.236 156.364 104.259 157.356 L 104.259 168.932 C 104.259 169.285 104.329 169.545 104.472 169.711 C 104.613 169.876 104.803 169.988 105.039 170.047 C 105.275 170.107 105.523 170.129 105.781 170.117 C 106.041 170.107 106.301 170.088 106.561 170.065 L 106.561 170.773 C 106.207 170.793 105.852 170.803 105.499 170.803 C 105.144 170.803 104.825 170.744 104.543 170.625 C 104.259 170.508 104.023 170.324 103.835 170.076 C 103.645 169.829 103.551 169.469 103.551 168.996 L 103.551 166.624 L 103.480 166.624 C 103.291 167.215 102.991 167.781 102.577 168.324 C 102.161 168.867 101.641 169.351 101.016 169.776 C 100.391 170.200 99.676 170.543 98.871 170.800 C 98.068 171.056 97.195 171.187 96.251 171.187 C 94.429 171.187 92.960 170.773 91.836 169.949 C 90.715 169.124 90.153 167.899 90.153 166.273 C 90.153 165.143 90.337 164.233 90.703 163.549 C 91.069 162.868 91.547 162.331 92.140 161.941 C 92.731 161.555 93.403 161.283 94.159 161.129 C 94.913 160.976 95.672 160.876 96.428 160.828 C 97.679 160.757 98.756 160.693 99.653 160.633 C 100.549 160.575 101.288 160.457 101.869 160.280 C 102.447 160.103 102.872 159.831 103.144 159.465 C 103.415 159.100 103.551 158.575 103.551 157.889 C 103.551 157.347 103.504 156.780 103.409 156.189 C 103.315 155.600 103.085 155.056 102.719 154.561 C 102.353 154.065 101.816 153.657 101.108 153.339 C 100.403 153.020 99.447 152.861 98.243 152.861 C 96.331 152.861 94.843 153.328 93.784 154.260 C 92.721 155.189 92.131 156.505 92.013 158.203 Z M 103.551 160.085 L 103.480 160.085 C 103.244 160.439 102.879 160.699 102.380 160.864 C 101.884 161.029 101.317 161.153 100.680 161.236 C 100.043 161.319 99.357 161.377 98.623 161.413 C 97.891 161.448 97.159 161.489 96.428 161.537 C 95.716 161.584 95.025 161.679 94.353 161.820 C 93.680 161.961 93.084 162.197 92.565 162.525 C 92.043 162.856 91.629 163.323 91.323 163.921 C 91.016 164.523 90.863 165.305 90.863 166.273 C 90.863 166.789 90.951 167.303 91.128 167.811 C 91.305 168.315 91.605 168.764 92.031 169.153 C 92.456 169.543 93.008 169.859 93.680 170.107 C 94.353 170.355 95.185 170.477 96.180 170.477 C 97.360 170.477 98.411 170.277 99.335 169.876 C 100.255 169.477 101.028 168.952 101.653 168.303 C 102.283 167.657 102.755 166.908 103.073 166.060 C 103.392 165.213 103.551 164.340 103.551 163.447 Z " transform="matrix(1, 0, 0, 1, -46.55, -38.5)"/>
      <path id="dp_path007" fill="#FFFFFF" d="M 109.040 163.897 L 109.040 170.773 L 108.332 170.773 L 108.332 145.484 L 109.040 145.484 L 109.040 163.012 L 121.611 152.567 L 122.644 152.567 L 114.287 159.509 L 123.233 170.773 L 122.289 170.773 L 113.752 160.003 Z " transform="matrix(1, 0, 0, 1, -46.55, -38.5)"/>
      <path id="dp_path008" fill="#FFFFFF" d="M 137.911 170.773 L 137.203 170.773 L 137.203 166.288 L 137.144 166.264 C 136.979 166.972 136.713 167.621 136.347 168.212 C 135.981 168.801 135.521 169.321 134.963 169.769 C 134.408 170.219 133.765 170.567 133.033 170.815 C 132.299 171.063 131.484 171.187 130.587 171.187 C 129.643 171.187 128.772 171.044 127.981 170.761 C 127.191 170.477 126.505 170.059 125.928 169.504 C 125.347 168.949 124.897 168.265 124.579 167.451 C 124.260 166.636 124.101 165.700 124.101 164.639 L 124.101 152.567 L 124.809 152.567 L 124.809 164.532 C 124.809 165.595 124.963 166.495 125.269 167.237 C 125.576 167.981 125.996 168.595 126.527 169.079 C 127.057 169.563 127.672 169.917 128.368 170.141 C 129.064 170.365 129.803 170.477 130.581 170.477 C 131.667 170.477 132.623 170.272 133.449 169.859 C 134.276 169.445 134.967 168.891 135.521 168.193 C 136.076 167.497 136.495 166.689 136.777 165.771 C 137.061 164.851 137.203 163.883 137.203 162.868 L 137.203 152.567 L 137.911 152.567 Z " transform="matrix(1, 0, 0, 1, -46.55, -38.5)"/>
      <path id="dp_path009" fill="#FFFFFF" d="M 141.853 145.484 L 142.561 145.484 L 142.561 157.067 L 142.620 157.067 C 142.785 156.357 143.051 155.712 143.417 155.121 C 143.783 154.535 144.243 154.015 144.801 153.567 C 145.356 153.117 145.999 152.772 146.731 152.525 C 147.465 152.277 148.280 152.153 149.177 152.153 C 150.121 152.153 150.992 152.295 151.783 152.577 C 152.573 152.861 153.259 153.280 153.836 153.835 C 154.417 154.389 154.867 155.075 155.185 155.889 C 155.504 156.703 155.663 157.639 155.663 158.701 L 155.663 170.773 L 154.955 170.773 L 154.955 158.807 C 154.955 157.745 154.801 156.845 154.495 156.101 C 154.188 155.357 153.768 154.744 153.237 154.260 C 152.707 153.776 152.092 153.421 151.396 153.197 C 150.700 152.973 149.961 152.861 149.183 152.861 C 148.097 152.861 147.141 153.068 146.315 153.481 C 145.488 153.893 144.797 154.449 144.243 155.145 C 143.688 155.841 143.269 156.651 142.987 157.568 C 142.703 158.488 142.561 159.456 142.561 160.472 L 142.561 170.773 L 141.853 170.773 Z " transform="matrix(1, 0, 0, 1, -46.55, -38.5)"/>
    </g>
  </g>
</svg>